<svg width="245" height="251" viewBox="0 0 245 251" fill="none" xmlns="http://www.w3.org/2000/svg">
<path d="M163.539 104.957C163.37 102.306 163.868 99.4132 165.532 97.5378C167.187 95.6511 170.01 94.7814 172.927 94.4254C175.844 94.0694 178.841 94.255 180.628 95.8076C182.403 97.368 182.952 100.323 183.591 103.088C184.218 105.863 184.943 108.459 184.342 110.827C183.732 113.183 181.785 115.319 179.337 116.674C176.885 118.05 173.932 118.645 171.518 117.817C169.096 116.979 167.214 114.72 165.871 112.384C164.519 110.035 163.708 107.608 163.539 104.957Z" fill="#9093D1"/>
<path d="M47.2695 142.503C46.9326 137.201 47.9276 131.415 51.2555 127.665C54.5666 123.891 60.2106 122.152 66.0447 121.44C71.879 120.728 77.8745 121.099 81.4472 124.204C84.9972 127.325 86.0952 133.235 87.3723 138.767C88.6266 144.314 90.0768 149.507 88.8747 154.243C87.6557 158.956 83.7618 163.227 78.8647 165.939C73.9616 168.689 68.0554 169.878 63.228 168.225C58.3838 166.549 54.6183 162.031 51.9325 157.357C49.2296 152.66 47.6065 147.806 47.2695 142.503Z" fill="#F7859C"/>
<path d="M114.002 208.356C113.665 203.053 114.66 197.268 117.988 193.517C121.299 189.744 126.943 188.005 132.778 187.293C138.611 186.581 144.607 186.952 148.179 190.056C151.729 193.176 152.827 199.087 154.105 204.618C155.359 210.167 156.809 215.36 155.607 220.096C154.388 224.807 150.494 229.08 145.597 231.79C140.694 234.541 134.788 235.73 129.961 234.077C125.116 232.401 121.35 227.883 118.665 223.209C115.962 218.511 114.339 213.658 114.002 208.356Z" fill="#F7859C"/>
<path d="M81.3446 62.3421C80.8311 54.0613 82.401 45.0231 87.6132 39.157C92.799 33.2549 101.627 30.525 110.75 29.3982C119.873 28.2716 129.246 28.8366 134.823 33.676C140.365 38.5416 142.068 47.7698 144.05 56.4059C145.997 65.0683 148.252 73.1743 146.36 80.5732C144.443 87.9363 138.345 94.6185 130.682 98.8644C123.01 103.172 113.773 105.045 106.23 102.475C98.6606 99.8694 92.7851 92.8221 88.5976 85.5285C84.3838 78.199 81.8582 70.623 81.3446 62.3421Z" fill="#9FD8E5"/>
<path d="M111.141 142.504C110.804 137.202 111.799 131.416 115.127 127.665C118.438 123.892 124.082 122.153 129.917 121.441C135.75 120.729 141.746 121.1 145.318 124.204C148.868 127.326 149.967 133.236 151.244 138.768C152.498 144.315 153.949 149.508 152.746 154.244C151.527 158.956 147.633 163.228 142.736 165.939C137.833 168.689 131.927 169.878 127.1 168.225C122.255 166.549 118.489 162.031 115.804 157.357C113.101 152.66 111.478 147.807 111.141 142.504Z" fill="#FFDBB4"/>
</svg>
