<svg width="34" height="37" viewBox="0 0 34 37" fill="none" xmlns="http://www.w3.org/2000/svg">
<g clip-path="url(#clip0_9301_313)">
<path d="M4.16671 7.96394C6.34034 4.62442 9.53209 1.59222 13.2163 0.830134C16.9006 0.0466705 21.0774 1.53332 24.9085 3.72277C28.7395 5.91223 32.1822 8.82555 32.9416 12.295C33.6797 15.7643 31.6919 19.8108 29.9816 23.7099C28.25 27.6087 26.7959 31.3815 23.95 33.6895C21.1043 35.9761 16.8456 36.7979 12.6829 36.2306C8.49869 35.6846 4.4105 33.7497 2.24544 30.5899C0.0805418 27.4087 -0.161217 23.0026 0.316833 18.987C0.795051 14.95 1.99308 11.3035 4.16671 7.96394Z" fill="#F7859C"/>
</g>
<defs>
<clipPath id="clip0_9301_313">
<rect width="34" height="36" fill="white" transform="translate(0 0.5)"/>
</clipPath>
</defs>
</svg>
