<svg width="245" height="182" viewBox="0 0 245 182" fill="none" xmlns="http://www.w3.org/2000/svg">
<path d="M74.1714 115.684C77.3692 120.285 79.6241 126.047 78.6561 131.243C77.716 136.452 73.5529 141.094 68.6575 144.914C63.7619 148.735 58.1291 151.665 53.2 150.811C48.2823 149.928 44.0635 145.194 39.8891 140.898C35.7264 136.575 31.5804 132.68 30.0858 127.753C28.6189 122.837 29.8151 116.862 32.7715 111.749C35.7117 106.597 40.4122 102.306 45.6861 101.169C50.9878 100.042 56.8629 102.068 61.8454 104.822C66.8557 107.588 70.9735 111.083 74.1714 115.684Z" fill="#9FD8E5"/>
<path d="M82.1151 31.9444C87.0977 39.1361 90.6064 48.1459 89.0859 56.2776C87.6089 64.4273 81.1027 71.6988 73.4547 77.6844C65.8068 83.67 57.0099 88.2651 49.3182 86.9369C41.6445 85.5655 35.0686 78.1664 28.5615 71.4545C22.0724 64.6994 15.6086 58.6135 13.2851 50.9078C11.0048 43.22 12.8829 33.8694 17.5067 25.8647C22.1053 17.7988 29.4496 11.0789 37.6831 9.28892C45.96 7.51699 55.1259 10.6749 62.8974 14.9749C70.7122 19.2928 77.1326 24.7527 82.1151 31.9444Z" fill="#9093D1"/>
<path d="M128.076 123.141C129.675 125.44 130.802 128.321 130.318 130.919C129.848 133.524 127.766 135.845 125.319 137.756C122.871 139.665 120.054 141.131 117.59 140.703C115.131 140.263 113.022 137.895 110.935 135.748C108.853 133.586 106.78 131.638 106.033 129.175C105.3 126.717 105.898 123.729 107.376 121.173C108.846 118.597 111.196 116.452 113.833 115.883C116.484 115.32 119.421 116.332 121.912 117.71C124.418 119.092 126.477 120.84 128.076 123.141Z" fill="#9093D1"/>
<path d="M159.34 16.4915C161.918 20.1999 163.736 24.8441 162.955 29.0328C162.197 33.2308 158.842 36.9734 154.895 40.0526C150.95 43.1318 146.409 45.494 142.437 44.8049C138.472 44.0937 135.073 40.2774 131.707 36.8153C128.352 33.331 125.011 30.1915 123.806 26.2199C122.623 22.2576 123.588 17.441 125.97 13.3197C128.341 9.16679 132.13 5.70903 136.38 4.79182C140.653 3.88393 145.389 5.51659 149.405 7.73674C153.444 9.96622 156.763 12.7831 159.34 16.4915Z" fill="#9093D1"/>
<path d="M143.231 68.1642C146.429 72.765 148.684 78.5267 147.716 83.7234C146.776 88.9317 142.613 93.5748 137.717 97.395C132.822 101.215 127.189 104.146 122.26 103.291C117.342 102.409 113.124 97.674 108.949 93.3788C104.786 89.056 100.64 85.1609 99.1459 80.2336C97.679 75.3178 98.8751 69.3423 101.831 64.2291C104.771 59.0769 109.473 54.787 114.746 53.6491C120.048 52.5228 125.923 54.5483 130.906 57.3026C135.916 60.0686 140.033 63.5635 143.231 68.1642Z" fill="#F7859C"/>
<path d="M225.765 116.821C230.748 124.012 234.256 133.023 232.736 141.155C231.259 149.303 224.753 156.575 217.105 162.561C209.457 168.546 200.66 173.141 192.968 171.813C185.295 170.442 178.719 163.043 172.212 156.331C165.723 149.576 159.259 143.49 156.935 135.784C154.656 128.097 156.533 118.745 161.157 110.741C165.755 102.675 173.1 95.9554 181.333 94.1655C189.61 92.3936 198.777 95.5515 206.548 99.8514C214.363 104.169 220.783 109.629 225.765 116.821Z" fill="#FFDBB4"/>
</svg>
